<svg aria-hidden="true" style="position: absolute; width: 0; height: 0; overflow: hidden;" version="1.1" xmlns="http://www.w3.org/2000/svg" xmlns:xlink="http://www.w3.org/1999/xlink">
<defs>
<symbol id="icon-twitter" viewBox="0 0 30 32">
<path stroke-linejoin="miter" stroke-linecap="butt" stroke-miterlimit="4" stroke-width="1" d="M17.441 13.928l11.608 16.894h-7.72l-8.398-12.222-10.514 12.222h-1.327l11.253-13.079-11.392-16.58h7.72l7.964 11.59 9.971-11.59h1.327l-10.308 11.982h-0.721l0.538 0.783zM12.633 16.447v0l9.419 13.473h5.285l-19.411-27.765h-5.285l9.992 14.292z"></path>
</symbol>
<symbol id="icon-address" viewBox="0 0 32 32">
<path d="M16 5c-3.13 0-5.667 2.537-5.667 5.667s2.537 5.667 5.667 5.667c3.13 0 5.667-2.537 5.667-5.667s-2.537-5.667-5.667-5.667zM8.333 10.667c0-4.234 3.432-7.667 7.667-7.667s7.667 3.432 7.667 7.667c0 3.895-2.905 7.112-6.667 7.602v9.731c0 0.552-0.448 1-1 1s-1-0.448-1-1v-9.731c-3.762-0.49-6.667-3.707-6.667-7.602z"></path>
</symbol>
<symbol id="icon-facebook" viewBox="0 0 32 32">
<path stroke-linejoin="miter" stroke-linecap="butt" stroke-miterlimit="4" stroke-width="1" d="M30.72 31.5h-8.144v-11.396h4.099l0.056-0.436 0.697-5.392h-4.853v-2.584c0-0.679 0.1-1.11 0.327-1.379 0.21-0.25 0.63-0.473 1.565-0.473h3.060v-5.253l-0.433-0.059c-0.47-0.063-2.008-0.197-3.795-0.197-1.945 0-3.636 0.596-4.84 1.787-1.207 1.193-1.872 2.928-1.872 5.097v3.060h-4.172v5.832h4.172v11.392h-15.308c-0.432 0-0.78-0.348-0.78-0.78v-29.44c0-0.432 0.348-0.78 0.78-0.78h29.44c0.432 0 0.78 0.348 0.78 0.78v29.44c0 0.432-0.348 0.78-0.78 0.78z"></path>
</symbol>
<symbol id="icon-mail" viewBox="0 0 32 32">
<path d="M3.683 6.35c0.421-0.421 1.006-0.683 1.65-0.683h21.333c0.644 0 1.229 0.262 1.65 0.683s0.683 1.006 0.683 1.65v16c0 1.289-1.045 2.333-2.333 2.333h-21.333c-1.289 0-2.333-1.045-2.333-2.333v-16c0-0.644 0.262-1.229 0.683-1.65zM6.414 7.667l8.407 8.407c0.651 0.651 1.706 0.651 2.357 0v0l8.407-8.407h-19.172zM27 9.081l-8.407 8.407c-1.432 1.432-3.753 1.432-5.185 0v0l-8.407-8.407v14.919c0 0.184 0.149 0.333 0.333 0.333h21.333c0.184 0 0.333-0.149 0.333-0.333v-14.919z"></path>
</symbol>
<symbol id="icon-phone" viewBox="0 0 32 32">
<path stroke-linejoin="round" stroke-linecap="round" stroke-miterlimit="4" stroke-width="2" d="M19.333 8.667c0.983 0.192 1.959 0.625 2.667 1.333s1.142 1.684 1.333 2.667M20 4c2.042 0.227 3.88 1.215 5.333 2.667s2.437 3.292 2.667 5.333M27.999 21.969v3.613c0.006 1.381-1.236 2.535-2.631 2.409-12.035 0.009-21.369-9.411-21.359-21.365-0.126-1.387 1.022-2.624 2.401-2.625h3.62c0.586-0.006 1.153 0.201 1.597 0.582 1.262 1.084 2.074 4.761 1.762 6.223-0.244 1.141-1.395 1.94-2.177 2.721 1.718 3.015 4.219 5.512 7.24 7.226 0.782-0.781 1.582-1.929 2.726-2.173 1.467-0.312 5.169 0.501 6.248 1.772 0.383 0.451 0.586 1.026 0.571 1.617z"></path>
</symbol>
<symbol id="icon-youtube" viewBox="0 0 32 32">
<path stroke-linejoin="miter" stroke-linecap="butt" stroke-miterlimit="4" stroke-width="1" d="M16 27.276l-0.112-0c-0.073-0-0.182-0-0.321-0.001-0.278-0.001-0.677-0.004-1.165-0.010-0.975-0.011-2.301-0.033-3.704-0.077s-2.88-0.11-4.158-0.209c-1.293-0.1-2.338-0.231-2.906-0.392l-0.001-0c-0.588-0.166-1.127-0.493-1.563-0.951v0c-0.431-0.453-0.744-1.019-0.907-1.642-0.458-2.636-0.68-5.311-0.663-7.991h0l-0-0.006c-0.016-2.68 0.206-5.355 0.663-7.991 0.163-0.623 0.476-1.189 0.907-1.642 0.435-0.457 0.974-0.784 1.563-0.951l0.001-0c0.568-0.162 1.613-0.292 2.906-0.392 1.278-0.099 2.754-0.165 4.158-0.209s2.728-0.066 3.704-0.077c0.488-0.006 0.887-0.008 1.165-0.010 0.139-0.001 0.247-0.001 0.321-0.001l0.14-0 0.084 0c0.073 0 0.182 0.001 0.321 0.001 0.278 0.001 0.677 0.004 1.165 0.010 0.975 0.011 2.301 0.033 3.704 0.077s2.88 0.11 4.158 0.209c1.293 0.1 2.338 0.231 2.906 0.392l0.001 0c0.588 0.166 1.128 0.493 1.563 0.951 0.431 0.453 0.744 1.019 0.907 1.642 0.458 2.636 0.68 5.311 0.663 7.991v0 0.006c0.017 2.68-0.206 5.355-0.663 7.991-0.163 0.623-0.476 1.189-0.907 1.642-0.435 0.457-0.974 0.784-1.563 0.951l-0.001 0c-0.568 0.162-1.613 0.292-2.906 0.392-1.278 0.099-2.754 0.165-4.158 0.209s-2.728 0.066-3.704 0.077c-0.488 0.006-0.887 0.008-1.165 0.010-0.139 0.001-0.247 0.001-0.321 0.001l-0.112 0zM12.3 21.047v0.889l9.771-5.936-9.771-5.936v10.983z"></path>
</symbol>
<symbol id="icon-instagram" viewBox="0 0 32 32">
<path d="M16 0c-4.342 0-4.888 0.020-6.594 0.096-1.706 0.080-2.868 0.348-3.886 0.744-1.109 0.424-2.055 1.052-2.833 1.845l-0.001 0.001c-0.793 0.78-1.421 1.725-1.828 2.78l-0.018 0.054c-0.396 1.016-0.666 2.18-0.744 3.88-0.076 1.71-0.096 2.254-0.096 6.602 0 4.344 0.020 4.888 0.096 6.594 0.080 1.704 0.348 2.866 0.744 3.884 0.41 1.052 0.956 1.944 1.846 2.834 0.888 0.89 1.78 1.438 2.832 1.846 1.020 0.396 2.18 0.666 3.884 0.744 1.708 0.076 2.252 0.096 6.598 0.096s4.888-0.020 6.596-0.096c1.702-0.080 2.868-0.348 3.886-0.744 1.108-0.424 2.053-1.052 2.831-1.845l0.001-0.001c0.89-0.89 1.436-1.782 1.846-2.834 0.394-1.018 0.664-2.18 0.744-3.884 0.076-1.706 0.096-2.25 0.096-6.596s-0.020-4.89-0.096-6.598c-0.080-1.702-0.35-2.866-0.744-3.882-0.425-1.109-1.053-2.054-1.845-2.833l-0.001-0.001c-0.779-0.794-1.725-1.422-2.78-1.828l-0.054-0.018c-1.020-0.396-2.184-0.666-3.886-0.744-1.708-0.076-2.25-0.096-6.598-0.096h0.006zM14.566 2.884h1.436c4.272 0 4.778 0.014 6.464 0.092 1.56 0.070 2.408 0.332 2.972 0.55 0.746 0.29 1.28 0.638 1.84 1.198s0.906 1.092 1.196 1.84c0.22 0.562 0.48 1.41 0.55 2.97 0.078 1.686 0.094 2.192 0.094 6.462s-0.016 4.778-0.094 6.464c-0.070 1.56-0.332 2.406-0.55 2.97-0.271 0.721-0.679 1.335-1.197 1.837l-0.001 0.001c-0.56 0.56-1.092 0.906-1.84 1.196-0.56 0.22-1.408 0.48-2.97 0.552-1.686 0.076-2.192 0.094-6.464 0.094s-4.78-0.018-6.466-0.094c-1.56-0.072-2.406-0.332-2.97-0.552-0.721-0.27-1.336-0.678-1.839-1.195l-0.001-0.001c-0.519-0.504-0.928-1.118-1.189-1.806l-0.011-0.034c-0.218-0.562-0.48-1.41-0.55-2.97-0.076-1.686-0.092-2.192-0.092-6.466 0-4.272 0.016-4.776 0.092-6.462 0.072-1.56 0.332-2.408 0.552-2.972 0.29-0.746 0.638-1.28 1.198-1.84s1.092-0.906 1.84-1.196c0.564-0.22 1.41-0.48 2.97-0.552 1.476-0.068 2.048-0.088 5.030-0.090v0.004zM24.542 5.54c-1.060 0-1.92 0.86-1.92 1.92s0.86 1.92 1.92 1.92v0c1.060 0 1.92-0.86 1.92-1.92s-0.86-1.92-1.92-1.92v0zM16.002 7.784c-0.038-0.001-0.083-0.001-0.128-0.001-4.539 0-8.218 3.679-8.218 8.218s3.679 8.218 8.218 8.218c0.045 0 0.090-0 0.135-0.001l-0.007 0c4.483-0.072 8.090-3.723 8.090-8.217s-3.607-8.145-8.083-8.217l-0.007-0zM16.002 10.666c2.946 0 5.334 2.388 5.334 5.334s-2.388 5.334-5.334 5.334v0c-2.946 0-5.334-2.388-5.334-5.334s2.388-5.334 5.334-5.334v0z"></path>
</symbol>
<symbol id="icon-location" viewBox="0 0 32 32">
<path d="M16 2.667c-5.153 0-9.333 4.18-9.333 9.333 0 7 9.333 17.333 9.333 17.333s9.333-10.333 9.333-17.333c0-5.153-4.18-9.333-9.333-9.333zM16 15.333c-1.84 0-3.333-1.493-3.333-3.333s1.493-3.333 3.333-3.333c1.84 0 3.333 1.493 3.333 3.333s-1.493 3.333-3.333 3.333z"></path>
</symbol>
<symbol id="icon-like" viewBox="0 0 32 32">
<path d="M15.946 26.696c-0.077 0-0.153-0.009-0.228-0.028-3.331-0.836-6.088-2.261-8.191-4.236-1.808-1.696-3.094-3.788-3.719-6.046-0.45-1.625-0.544-3.292-0.272-4.813s0.882-2.791 1.766-3.675c2.229-2.229 5.563-2.258 7.875-1.299 1.058 0.438 1.957 1.089 2.6 1.881 0.058 0.071 0.114 0.144 0.167 0.217 0.054-0.073 0.11-0.146 0.168-0.217 0.642-0.793 1.542-1.443 2.6-1.881 2.313-0.959 5.649-0.929 7.875 1.299 0.884 0.884 1.495 2.155 1.766 3.675s0.177 3.188-0.273 4.813c-0.625 2.259-1.911 4.349-3.719 6.046-2.104 1.975-4.86 3.4-8.192 4.236-0.073 0.018-0.148 0.028-0.223 0.028zM10.157 7.857c-1.479 0-2.75 0.584-3.53 1.364-1.314 1.317-1.733 4.058-1.013 6.665 0.533 1.926 1.638 3.718 3.195 5.179 1.821 1.709 4.221 2.962 7.136 3.726 2.916-0.764 5.316-2.016 7.137-3.726 1.557-1.461 2.662-3.25 3.194-5.179 0.721-2.607 0.305-5.348-1.012-6.665-1.165-1.164-3.421-1.893-5.834-0.893-1.595 0.661-2.547 1.852-2.547 3.188 0 0.249-0.099 0.487-0.274 0.663s-0.414 0.275-0.663 0.275c-0.249 0-0.487-0.099-0.663-0.275s-0.275-0.414-0.275-0.663c0-1.336-0.952-2.527-2.547-3.188-0.73-0.308-1.513-0.468-2.304-0.472z"></path>
</symbol>
</defs>
</svg>
