<svg width="32" height="32" viewBox="0 0 32 32" fill="none" xmlns="http://www.w3.org/2000/svg">
<path d="M5.70045 1.30605L5.70045 1.30605C4.70829 1.69163 3.87598 2.20203 3.03897 3.03904C2.20196 3.87604 1.69157 4.70836 1.30599 5.70051L1.30598 5.70053C0.932441 6.66161 0.671276 7.7704 0.595701 9.42602C0.518356 11.1212 0.5 11.6571 0.5 16C0.5 20.3429 0.518357 20.8788 0.595701 22.574C0.671276 24.2296 0.932441 25.3384 1.30598 26.2995L1.30599 26.2995C1.69157 27.2916 2.20196 28.124 3.03897 28.961C3.87598 29.798 4.70828 30.3084 5.70043 30.694C5.70043 30.694 5.70044 30.694 5.70045 30.694L5.51933 31.1601C6.53711 31.5555 7.70021 31.826 9.40322 31.9037C11.1098 31.9816 11.6547 32 16 32C20.3453 32 20.8902 31.9816 22.5968 31.9037C24.2998 31.826 25.4629 31.5555 26.4806 31.1601L5.70045 1.30605ZM5.70045 1.30605C6.66161 0.932504 7.77039 0.67134 9.42601 0.595765C11.1212 0.51842 11.6571 0.5 16 0.5C20.3429 0.5 20.8788 0.51842 22.574 0.595764C24.2296 0.67134 25.3384 0.932505 26.2995 1.30605L26.2995 1.30605C27.2916 1.69163 28.124 2.20202 28.961 3.03904L5.70045 1.30605ZM25.6174 3.06102L25.6175 3.06104C26.4282 3.37611 27.0201 3.76091 27.6296 4.37041C28.2392 4.97995 28.6239 5.57193 28.939 6.38252L28.4729 6.56366L28.939 6.38253C29.1774 6.99612 29.4497 7.89674 29.5233 9.51185C29.6008 11.2105 29.6171 11.7257 29.6171 16C29.6171 20.2743 29.6008 20.7895 29.5233 22.4882C29.4497 24.1033 29.1774 25.0039 28.939 25.6175C28.6239 26.4281 28.2392 27.0201 27.6296 27.6296C27.6296 27.6296 27.6296 27.6296 27.6296 27.6296M25.6174 3.06102L22.4654 29.0238C24.0254 28.9527 24.8725 28.692 25.4363 28.4729C26.1832 28.1827 26.7162 27.836 27.276 27.276L27.6296 27.6296M25.6174 3.06102C25.0039 2.82264 24.1033 2.55041 22.4882 2.4767L22.4654 2.97618M25.6174 3.06102L22.4654 2.97618M27.6296 27.6296C27.02 28.2392 26.4281 28.6239 25.6175 28.939C25.0039 29.1774 24.1033 29.4497 22.4881 29.5233L27.6296 27.6296ZM22.4654 2.97618L22.4882 2.4767C20.7894 2.39919 20.2743 2.38294 16 2.38294C11.7257 2.38294 11.2106 2.39919 9.51184 2.4767L9.53463 2.97618L9.51183 2.4767C7.89672 2.55041 6.99613 2.82264 6.38258 3.06102L6.38254 3.06104C5.57183 3.37611 4.97993 3.7609 4.37037 4.37039L4.37035 4.37041M22.4654 2.97618L4.37035 4.37041M2.97611 9.53463L2.47663 9.51183C2.55035 7.89675 2.82257 6.99614 3.06103 6.38256L2.97611 9.53463ZM2.97611 9.53463L2.47663 9.51184C2.39913 11.2106 2.38288 11.7257 2.38288 16C2.38288 20.2743 2.39913 20.7894 2.47663 22.4882L2.97611 22.4654V9.53463ZM4.37035 4.37041C3.76084 4.97992 3.37604 5.5719 3.06104 6.38253L4.37035 4.37041ZM10.1666 16C10.1666 19.2216 12.7782 21.8333 15.9999 21.8333C19.2216 21.8333 21.8332 19.2216 21.8332 16C21.8332 12.7783 19.2216 10.1666 15.9999 10.1666C12.7782 10.1666 10.1666 12.7783 10.1666 16ZM8.28369 16C8.28369 11.7384 11.7383 8.28373 15.9999 8.28373C20.2615 8.28373 23.7161 11.7384 23.7161 16C23.7161 20.2615 20.2615 23.7161 15.9999 23.7161C11.7383 23.7161 8.28369 20.2615 8.28369 16ZM25.9609 7.45922C25.9609 8.24345 25.3251 8.87919 24.5408 8.87919C23.7566 8.87919 23.1208 8.24346 23.1208 7.45922C23.1208 6.67497 23.7566 6.03925 24.5408 6.03925C25.3251 6.03925 25.9609 6.67498 25.9609 7.45922Z" fill="#3C9AF1" fill-opacity="0.4" stroke="#3C9AF1"/>
</svg>
