<svg width="32" height="32" viewBox="0 0 32 32" fill="none" xmlns="http://www.w3.org/2000/svg">
<path d="M15.9458 26.6959C15.8689 26.6959 15.7923 26.6864 15.7177 26.6678C12.3865 25.8321 9.63021 24.4071 7.52646 22.4321C5.71834 20.7359 4.43209 18.6446 3.80771 16.3859C3.35771 14.7609 3.26334 13.094 3.53521 11.5734C3.80709 10.0528 4.41709 8.78276 5.30146 7.89839C7.53021 5.66964 10.864 5.64026 13.1765 6.59901C14.2346 7.03651 15.1333 7.68776 15.7765 8.48026C15.8344 8.55151 15.89 8.62381 15.9433 8.69714C15.9971 8.62381 16.0529 8.55151 16.1108 8.48026C16.7533 7.68776 17.6527 7.03714 18.7108 6.59901C21.0233 5.64026 24.3596 5.66964 26.5858 7.89839C27.4702 8.78276 28.0808 10.0534 28.3521 11.5734C28.6233 13.0934 28.5296 14.7609 28.0796 16.3859C27.4546 18.6446 26.169 20.7353 24.3608 22.4321C22.2571 24.4071 19.5008 25.8321 16.169 26.6678C16.096 26.6861 16.0211 26.6955 15.9458 26.6959ZM10.1571 7.85714C8.67771 7.85714 7.40709 8.44151 6.62709 9.22151C5.31271 10.539 4.89396 13.2796 5.61459 15.8865C6.14771 17.8128 7.25209 19.604 8.80959 21.0653C10.6308 22.7746 13.0308 24.0271 15.9458 24.7909C18.8615 24.0271 21.2615 22.7746 23.0827 21.0653C24.6396 19.604 25.7446 17.8153 26.2771 15.8865C26.9983 13.2796 26.5821 10.539 25.2652 9.22151C24.1002 8.05714 21.8446 7.32901 19.4308 8.32901C17.8358 8.98964 16.8833 10.1809 16.8833 11.5165C16.8833 11.7652 16.7846 12.0036 16.6088 12.1794C16.4329 12.3552 16.1945 12.454 15.9458 12.454C15.6972 12.454 15.4587 12.3552 15.2829 12.1794C15.1071 12.0036 15.0083 11.7652 15.0083 11.5165C15.0083 10.1809 14.0565 8.98964 12.4615 8.32901C11.7319 8.02138 10.9488 7.86101 10.1571 7.85714Z" fill="#3C9AF1"/>
</svg>
